<svg xmlns="http://www.w3.org/2000/svg" viewBox="0 0 800 400">
  <!-- Background -->
  <rect width="800" height="400" fill="#1e1e1e"/>
  
  <!-- Title -->
  <text x="400" y="40" font-family="Arial" font-size="24" text-anchor="middle" fill="#e0e0e0">Inmutabilidad (Strings)</text>

  <!-- Step 1: Initial State -->
  <g transform="translate(50, 100)">
    <text x="100" y="-20" font-family="Arial" font-size="18" fill="#e0e0e0" text-anchor="middle">1. s1 = "hola", s2 = s1</text>
    
    <!-- Variable s1 -->
    <rect x="20" y="20" width="60" height="40" rx="5" fill="#2d3748" stroke="#63b3ed" stroke-width="2"/>
    <text x="50" y="45" font-family="Arial" font-size="18" fill="#e0e0e0" text-anchor="middle">s1</text>
    
    <!-- Variable s2 -->
    <rect x="20" y="80" width="60" height="40" rx="5" fill="#2d3748" stroke="#63b3ed" stroke-width="2"/>
    <text x="50" y="105" font-family="Arial" font-size="18" fill="#e0e0e0" text-anchor="middle">s2</text>
    
    <!-- Arrows -->
    <path d="M 90 40 L 170 70" stroke="#e0e0e0" stroke-width="2" marker-end="url(#arrowhead)"/>
    <path d="M 90 100 L 170 70" stroke="#e0e0e0" stroke-width="2" marker-end="url(#arrowhead)"/>
    
    <!-- Object "hola" -->
    <rect x="180" y="50" width="100" height="40" rx="5" fill="#4a5568" stroke="#fc8181" stroke-width="2"/>
    <text x="230" y="75" font-family="Arial" font-size="18" fill="#e0e0e0" text-anchor="middle">"hola"</text>
  </g>

  <!-- Step 2: Modification -->
  <g transform="translate(400, 100)">
    <text x="150" y="-20" font-family="Arial" font-size="18" fill="#e0e0e0" text-anchor="middle">2. s1 += " mundo"</text>
    
    <!-- Variable s1 -->
    <rect x="20" y="20" width="60" height="40" rx="5" fill="#2d3748" stroke="#63b3ed" stroke-width="2"/>
    <text x="50" y="45" font-family="Arial" font-size="18" fill="#e0e0e0" text-anchor="middle">s1</text>
    
    <!-- Variable s2 -->
    <rect x="20" y="140" width="60" height="40" rx="5" fill="#2d3748" stroke="#63b3ed" stroke-width="2"/>
    <text x="50" y="165" font-family="Arial" font-size="18" fill="#e0e0e0" text-anchor="middle">s2</text>
    
    <!-- Arrow s1 -> new object -->
    <path d="M 90 40 L 170 40" stroke="#e0e0e0" stroke-width="2" marker-end="url(#arrowhead)"/>
    
    <!-- Arrow s2 -> old object -->
    <path d="M 90 160 L 170 160" stroke="#e0e0e0" stroke-width="2" marker-end="url(#arrowhead)"/>
    
    <!-- New Object "hola mundo" -->
    <rect x="180" y="20" width="160" height="40" rx="5" fill="#4a5568" stroke="#fc8181" stroke-width="2"/>
    <text x="260" y="45" font-family="Arial" font-size="18" fill="#e0e0e0" text-anchor="middle">"hola mundo"</text>
    
    <!-- Old Object "hola" -->
    <rect x="180" y="140" width="100" height="40" rx="5" fill="#4a5568" stroke="#fc8181" stroke-width="2"/>
    <text x="230" y="165" font-family="Arial" font-size="18" fill="#e0e0e0" text-anchor="middle">"hola"</text>
  </g>

  <!-- Definitions -->
  <defs>
    <marker id="arrowhead" markerWidth="10" markerHeight="7" refX="9" refY="3.5" orient="auto">
      <polygon points="0 0, 10 3.5, 0 7" fill="#e0e0e0"/>
    </marker>
  </defs>
</svg>
