<?xml version='1.0' encoding='utf-8'?>
<svg xmlns="http://www.w3.org/2000/svg" viewBox="0 -50 660 510">
  <rect x="0" y="-50" width="660" height="510" fill="#1e1e1e" />

  <defs>
    <style>
      .label-node { font-family: Arial; font-size: 16px; text-anchor: middle; dominant-baseline: middle; fill: #e0e0e0; }
      .edge { fill: none; stroke: #e0e0e0; stroke-width: 2; }
      .node-circle { fill: #2d3748; stroke: #63b3ed; stroke-width: 2; }
    </style>
    <marker id="arrowhead" markerWidth="6" markerHeight="5" refX="6" refY="2.5" orient="auto">
      <polygon points="0 0, 6 2.5, 0 5" fill="#e0e0e0" />
    </marker>
  </defs>

  <g class="edge" marker-end="url(#arrowhead)">
    <path d="M 50,50 Q 95,-20 140,90" />
    <path d="M 50,50 Q 320,-180 590,390" />
    <path d="M 140,110 Q 185,40 230,150" />
    <path d="M 140,110 Q 230,-10 320,210" />
    <path d="M 230,170 Q 275,120 320,210" />
    <path d="M 230,170 Q 320,60 410,270" />
    <path d="M 320,230 Q 365,190 410,270" />
    <path d="M 320,230 Q 410,100 500,330" />
    <path d="M 320,230 Q 455,0 590,390" />
    <path d="M 410,290 Q 455,250 500,330" />
    <path d="M 500,350 Q 545,310 590,390" />
  </g>

  <g class="node-circle">
    <circle cx="50" cy="50" r="20" />
    <circle cx="140" cy="110" r="20" />
    <circle cx="230" cy="170" r="20" />
    <circle cx="320" cy="230" r="20" />
    <circle cx="410" cy="290" r="20" />
    <circle cx="500" cy="350" r="20" />
    <circle cx="590" cy="410" r="20" />
  </g>

  <g class="label-node">
    <text x="50" y="50">V2</text>
    <text x="140" y="110">V0</text>
    <text x="230" y="170">V1</text>
    <text x="320" y="230">V3</text>
    <text x="410" y="290">V4</text>
    <text x="500" y="350">V6</text>
    <text x="590" y="410">V5</text>
  </g>

</svg>
