<?xml version='1.0' encoding='utf-8'?>
<svg xmlns="http://www.w3.org/2000/svg" viewBox="0 0 400 300">
  <rect width="400" height="300" fill="#1e1e1e" />
  <defs>
    <marker id="arrowhead" markerWidth="6" markerHeight="5" refX="6" refY="2.5" orient="auto">
      <polygon points="0 0, 6 2.5, 0 5" fill="#e0e0e0" />
    </marker>
  </defs>

  
  
  <line x1="50" y1="150" x2="150" y2="50" stroke="#e0e0e0" stroke-width="2" marker-end="url(#arrowhead)" />
  <text x="90" y="90" font-family="Arial" font-size="12" fill="#e0e0e0">4</text>

  
  <line x1="50" y1="150" x2="150" y2="250" stroke="#e0e0e0" stroke-width="2" marker-end="url(#arrowhead)" />
  <text x="90" y="210" font-family="Arial" font-size="12" fill="#e0e0e0">1</text>

  
  <line x1="150" y1="50" x2="350" y2="150" stroke="#e0e0e0" stroke-width="2" marker-end="url(#arrowhead)" />
  <text x="250" y="90" font-family="Arial" font-size="12" fill="#e0e0e0">3</text>

  
  <line x1="150" y1="250" x2="150" y2="50" stroke="#e0e0e0" stroke-width="2" marker-end="url(#arrowhead)" />
  <text x="160" y="150" font-family="Arial" font-size="12" fill="#e0e0e0">2</text>

  
  <line x1="150" y1="250" x2="250" y2="250" stroke="#e0e0e0" stroke-width="2" marker-end="url(#arrowhead)" />
  <text x="200" y="240" font-family="Arial" font-size="12" fill="#e0e0e0">2</text>

  
  <line x1="250" y1="250" x2="350" y2="150" stroke="#e0e0e0" stroke-width="2" marker-end="url(#arrowhead)" />
  <text x="310" y="210" font-family="Arial" font-size="12" fill="#e0e0e0">3</text>

  
  <circle cx="50" cy="150" r="20" fill="#2d3748" stroke="#63b3ed" stroke-width="2" />
  <text x="50" y="155" font-family="Arial" font-size="14" fill="#e0e0e0" text-anchor="middle">A</text>

  <circle cx="150" cy="50" r="20" fill="#2d3748" stroke="#63b3ed" stroke-width="2" />
  <text x="150" y="55" font-family="Arial" font-size="14" fill="#e0e0e0" text-anchor="middle">B</text>

  <circle cx="150" cy="250" r="20" fill="#2d3748" stroke="#63b3ed" stroke-width="2" />
  <text x="150" y="255" font-family="Arial" font-size="14" fill="#e0e0e0" text-anchor="middle">C</text>

  <circle cx="250" cy="250" r="20" fill="#2d3748" stroke="#63b3ed" stroke-width="2" />
  <text x="250" y="255" font-family="Arial" font-size="14" fill="#e0e0e0" text-anchor="middle">D</text>

  <circle cx="350" cy="150" r="20" fill="#2d3748" stroke="#63b3ed" stroke-width="2" />
  <text x="350" y="155" font-family="Arial" font-size="14" fill="#e0e0e0" text-anchor="middle">E</text>
</svg>