<?xml version='1.0' encoding='utf-8'?>
<svg xmlns="http://www.w3.org/2000/svg" viewBox="0 0 400 300">
  <defs>
    <style>
      .edge { stroke: #333333; stroke-width: 2; }
      .weight-text { fill: #333333; font-weight: bold; font-family: Arial; font-size: 14px; }
      .node-text { fill: #333333; font-family: Arial; font-size: 14px; }
      .variable-node { fill: #e1f5ff; stroke: #4682b4; stroke-width: 2; }
      .value-node { fill: #ffe1e1; stroke: #e9967a; stroke-width: 2; }
      .highlight-edge { stroke: #ef6c00; stroke-width: 2; }
      .highlight-text { fill: #ef6c00; font-weight: bold; font-family: Arial; font-size: 14px; }
      .background { fill: #ffffff; }
    </style>
    <marker id="arrowhead" markerWidth="6" markerHeight="5" refX="6" refY="2.5" orient="auto">
      <polygon points="0 0, 6 2.5, 0 5" fill="#333333" />
    </marker>
  </defs>

  
  
  <line class="edge" x1="50" y1="150" x2="150" y2="50" marker-end="url(#arrowhead)" />
  <text class="node-text" x="90" y="90">4</text>

  
  <line class="edge" x1="50" y1="150" x2="150" y2="250" marker-end="url(#arrowhead)" />
  <text class="node-text" x="90" y="210">1</text>

  
  <line class="edge" x1="150" y1="50" x2="350" y2="150" marker-end="url(#arrowhead)" />
  <text class="node-text" x="250" y="90">3</text>

  
  <line class="edge" x1="150" y1="250" x2="150" y2="50" marker-end="url(#arrowhead)" />
  <text class="node-text" x="160" y="150">2</text>

  
  <line class="edge" x1="150" y1="250" x2="250" y2="250" marker-end="url(#arrowhead)" />
  <text class="node-text" x="200" y="240">2</text>

  
  <line class="edge" x1="250" y1="250" x2="350" y2="150" marker-end="url(#arrowhead)" />
  <text class="node-text" x="310" y="210">3</text>

  
  <circle class="variable-node" cx="50" cy="150" r="20" />
  <text class="node-text" x="50" y="155" text-anchor="middle">A</text>

  <circle class="variable-node" cx="150" cy="50" r="20" />
  <text class="node-text" x="150" y="55" text-anchor="middle">B</text>

  <circle class="variable-node" cx="150" cy="250" r="20" />
  <text class="node-text" x="150" y="255" text-anchor="middle">C</text>

  <circle class="variable-node" cx="250" cy="250" r="20" />
  <text class="node-text" x="250" y="255" text-anchor="middle">D</text>

  <circle class="variable-node" cx="350" cy="150" r="20" />
  <text class="node-text" x="350" y="155" text-anchor="middle">E</text>
</svg>