<?xml version='1.0' encoding='utf-8'?>
<svg xmlns="http://www.w3.org/2000/svg" viewBox="0 0 830 915">
  <rect width="830" height="915" fill="#1e1e1e" />

  <defs>
    <marker id="arrowhead-dark" markerWidth="6" markerHeight="5" refX="6" refY="2.5" orient="auto">
      <polygon points="0 0, 6 2.5, 0 5" fill="#e0e0e0" />
    </marker>
  </defs>

  <style>
    .label { font-family: Arial; font-size: 14px; text-anchor: middle; dominant-baseline: middle; fill: #e0e0e0; }
    .title { font-family: Arial; font-size: 18px; text-anchor: middle; fill: #e0e0e0; }
    .edge { fill: none; stroke: #e0e0e0; stroke-width: 2; marker-end: url(#arrowhead-dark); }
    .group-box { fill: #2d3748; stroke: #fbc02d; stroke-width: 2; stroke-dasharray: 5,5; }
    .box-green { fill: #2d3748; stroke: #388e3c; stroke-width: 2; }
    .box-blue { fill: #2d3748; stroke: #1976d2; stroke-width: 2; }
    .box-purple { fill: #2d3748; stroke: #7b1fa2; stroke-width: 2; }
    .box-yellow { fill: #2d3748; stroke: #fbc02d; stroke-width: 2; }
  </style>

  <rect x="470" y="40" width="220" height="160" class="group-box" rx="10" />
  <rect x="440" y="240" width="280" height="240" class="group-box" rx="10" />
  <rect x="60" y="320" width="280" height="275" class="group-box" rx="10" />
  <rect x="440" y="520" width="280" height="355" class="group-box" rx="10" />

  <g>
    <path d="M 580,100 V 140" class="edge" />
    <path d="M 580,180 V 260" class="edge" />
    <path d="M 580,300 V 340" class="edge" />
    <path d="M 580,380 V 420" class="edge" />
    <path d="M 580,450 V 540" class="edge" />
    <path d="M 480,440 H 300" class="edge" />
    <path d="M 480,440 H 390 V 535 H 300" class="edge" />
    <path d="M 580,580 V 620" class="edge" />
    <path d="M 580,660 V 700" class="edge" />
    <path d="M 580,740 V 780" class="edge" />
    <path d="M 680,720 H 770 V 160 H 650" class="edge" />
    <path d="M 480,280 H 200 V 340" class="edge" />
    <path d="M 200,380 V 420" class="edge" />
    <path d="M 200,460 V 500" class="edge" />
  </g>
  <g>
    <g>
      <rect x="510" y="60" width="140" height="40" class="box-green" />
      <text x="580" y="80" class="label">URLs semilla</text>

      <rect x="510" y="140" width="140" height="40" class="box-green" />
      <text x="580" y="160" class="label">Frontera de URLs</text>
    </g>

    <g>
      <rect x="480" y="260" width="200" height="40" class="box-blue" />
      <text x="580" y="280" class="label">Obtenedor de HTML</text>

      <rect x="480" y="340" width="200" height="40" class="box-blue" />
      <text x="580" y="360" class="label">Analizador HTML</text>

      <rect x="480" y="420" width="200" height="40" class="box-blue" />
      <text x="580" y="440" class="label">Detección de duplicados</text>
    </g>

    <g>
      <rect x="480" y="540" width="200" height="40" class="box-blue" />
      <text x="580" y="560" class="label">Extractor de URLs</text>

      <rect x="480" y="620" width="200" height="40" class="box-blue" />
      <text x="580" y="640" class="label">Filtro de URLs</text>

      <rect x="480" y="700" width="200" height="40" class="box-blue" />
      <text x="580" y="720" class="label">Cargador/Detector de URLs</text>

      <path d="M 480,795 V 835 C 480,865 680,865 680,835 V 795 C 680,775 480,775 480,795 Z" class="box-yellow" />
      <ellipse cx="580" cy="795" rx="100" ry="15" class="box-yellow" />
      <text x="580" y="825" class="label">Almacenamiento de URLs</text>
    </g>

    <g>
      <rect x="100" y="340" width="200" height="40" class="box-purple" />
      <text x="200" y="360" class="label">Resolutor DNS</text>

      <rect x="100" y="420" width="200" height="40" class="box-purple" />
      <text x="200" y="440" class="label">Cacheo</text>

      <path d="M 100,515 V 555 C 100,585 300,585 300,555 V 515 C 300,495 100,495 100,515 Z" class="box-yellow" />
      <ellipse cx="200" cy="515" rx="100" ry="15" class="box-yellow" />
      <text x="200" y="545" class="label">Almacenamiento de datos</text>
    </g>
  </g>

</svg>
