<?xml version='1.0' encoding='utf-8'?>
<svg xmlns="http://www.w3.org/2000/svg" viewBox="0 0 1060 1300">
  <rect width="100%" height="100%" class="background" />
  <defs>
    <style>
      .edge { fill: none; stroke: #333333; stroke-width: 2; }
      .edge-arrow { fill: none; stroke: #333333; stroke-width: 2; marker-end: url(#arrowhead); }
      .weight-text { fill: #333333; font-weight: bold; font-family: Arial; font-size: 14px; }
      .node-text { fill: #333333; font-family: Arial; font-size: 14px; }
      .course-node { fill: #e1f5ff; stroke: #4682b4; stroke-width: 2; rx: 8; }
      .variable-node { fill: #e1f5ff; stroke: #4682b4; stroke-width: 2; }
      .value-node { fill: #ffe1e1; stroke: #e9967a; stroke-width: 2; }
      .highlight-edge { stroke: #ef6c00; stroke-width: 2; }
      .highlight-text { fill: #ef6c00; font-weight: bold; font-family: Arial; font-size: 14px; }
      .background { fill: #ffffff; }
      .title { font-family: Arial; font-size: 20px; font-weight: bold; fill: #333333; text-anchor: middle; }
      .year-label { font-family: Arial; font-size: 14px; font-weight: bold; fill: #333333; text-anchor: end; }
      .course-label { font-family: Arial; font-size: 14px; fill: #333333; text-anchor: middle; }
    </style>
    <marker id="arrowhead" markerWidth="6" markerHeight="5" refX="6" refY="2.5" orient="auto">
      <polygon points="0 0, 6 2.5, 0 5" fill="#333333" />
    </marker>
  </defs>

  <g>
    <text class="title" x="600" y="40">Ciclo Básico Común</text>
    <g class="year-label">
        <text x="150" y="145">1 año - 1C</text>
        <text x="150" y="295">1 año - 2C</text>
        <text x="150" y="445">2 año - 1C</text>
        <text x="150" y="595">2 año - 2C</text>
        <text x="150" y="745">3 año - 1C</text>
        <text x="150" y="895">3 año - 2C</text>
        <text x="150" y="1045">4 año - 1C</text>
        <text x="150" y="1250">4 año - 2C</text>
    </g>

    <g class="edge">
      <path d="M 300 180 V 230" />
      <path d="M 600 180 V 230 H 300" />
      <path d="M 300 200 H 900 V 380" />
      <path d="M 300 980 H 900" />
      <path d="M 300 930 V 980" />
      <path d="M 900 780 V 980" />
      <path d="M 600 480 V 515 H 760 V 980" />
      <path d="M 600 330 V 365 H 40 V 815 H 300 V 830" />
      <path d="M 300 480 V 515 H 60 V 965 H 300 V 980" />
      <path d="M 600 180 V 230" />
      <path d="M 300 330 V 380" />
      <path d="M 300 480 V 530" />
      <path d="M 900 480 V 530" />
      <path d="M 300 630 V 645" />
      <path d="M 600 630 V 680" />
      <path d="M 900 630 V 680" />
      <path d="M 300 780 V 830" />
      <path d="M 600 480 V 500" />
    </g>

    <g class="edge-arrow" marker-end="url(#arrowhead)">
      <path d="M 300 230 V 250" />
      <path d="M 600 230 V 250" />
      <path d="M 900 380 V 400" />
      <path d="M 300 380 V 400" />
      <path d="M 300 365 H 550 V 550" />
      <path d="M 300 365 H 600 V 400" />
      <path d="M 300 830 V 850" />
      <path d="M 300 530 V 550" />
      <path d="M 300 980 V 1000" />
      <path d="M 900 530 V 550" />
      <path d="M 300 645 H 600 V 850" />
      <path d="M 600 680 V 700" />
      <path d="M 600 500 V 515 H 740 V 665 H 600 V 700" />
      <path d="M 900 680 V 700" />
      <path d="M 300 830 V 850" />
      <path d="M 620 980 V 1000" />
    </g>

    <line class="edge" x1="100" y1="1150" x2="1020" y2="1150" stroke-dasharray="5,5" />

    <g class="course-node">
        <rect x="180" y="100" width="240" height="80" />
        <rect x="480" y="100" width="240" height="80" />
        <rect x="180" y="250" width="240" height="80" />
        <rect x="480" y="250" width="240" height="80" />
        <rect x="180" y="400" width="240" height="80" />
        <rect x="480" y="400" width="240" height="80" />
        <rect x="780" y="400" width="240" height="80" />
        <rect x="180" y="550" width="240" height="80" />
        <rect x="480" y="550" width="240" height="80" />
        <rect x="780" y="550" width="240" height="80" />
        <rect x="180" y="700" width="240" height="80" />
        <rect x="480" y="700" width="240" height="80" />
        <rect x="780" y="700" width="240" height="80" />
        <rect x="180" y="850" width="240" height="80" />
        <rect x="480" y="850" width="240" height="80" />
        <rect x="780" y="850" width="240" height="80" />
        <rect x="180" y="1000" width="240" height="80" />
        <rect x="480" y="1000" width="280" height="80" />
        <rect x="780" y="1000" width="240" height="80" />
        <rect x="180" y="1200" width="400" height="80" />
        <rect x="620" y="1200" width="400" height="80" />
    </g>

    <g class="course-label">
        <text x="300" y="135">Introducción a la<tspan x="300" dy="1.2em">Programación (10 hs)</tspan></text>
        <text x="600" y="145">Algebra I (10 hs)</text>
        <text x="300" y="285">Algoritmos y<tspan x="300" dy="1.2em">Est. de Datos (15 hs)</tspan></text>
        <text x="600" y="295">Análisis I (10 hs)</text>
        <text x="300" y="435">Paradigmas de<tspan x="300" dy="1.2em">Programación (10 hs)</tspan></text>
        <text x="600" y="435">Técnicas de Diseño<tspan x="600" dy="1.2em">de Algoritmos (10 hs)</tspan></text>
        <text x="900" y="435">Sistemas<tspan x="900" dy="1.2em">Digitales (5 hs)</tspan></text>
        <text x="300" y="585">Ingeniería de<tspan x="300" dy="1.2em">Software (10 hs)</tspan></text>
        <text x="600" y="575">Lenguajes Formales,<tspan x="600" dy="1.2em">Autómatas y</tspan><tspan x="600" dy="1.2em">Computabilidad (5 hs)</tspan></text>
        <text x="900" y="585">Arquitectura y Org.<tspan x="900" dy="1.2em">de Computadores (10 hs)</tspan></text>
        <text x="300" y="735">Algebra Lineal<tspan x="300" dy="1.2em">Computacional (10 hs)</tspan></text>
        <text x="600" y="735">Complejidad<tspan x="600" dy="1.2em">Computacional (5 hs)</tspan></text>
        <text x="900" y="735">Sistemas<tspan x="900" dy="1.2em">Operativos (10 hs)</tspan></text>
        <text x="300" y="885">Estadística<tspan x="300" dy="1.2em">Computacional (10 hs)</tspan></text>
        <text x="600" y="885">Almacenamiento y<tspan x="600" dy="1.2em">Recuperación (10 hs)</tspan></text>
        <text x="900" y="885">Optativas (4 créditos)<tspan x="900" dy="1.2em">(5 hs)</tspan></text>
        <text x="300" y="1035">Programación<tspan x="300" dy="1.2em">Conc. y Paralela (10 hs)</tspan></text>
        <text x="620" y="1035">Redes de Com. y<tspan x="620" dy="1.2em">Cómputo Distribuido (10 hs)</tspan></text>
        <text x="900" y="1035">Optativas (4 créditos)<tspan x="900" dy="1.2em">(5 hs)</tspan></text>
        <text x="380" y="1235">Trabajo Final<tspan x="380" dy="1.2em">Tesis de Licenciatura (15 hs)</tspan></text>
        <text x="820" y="1245">Optativas (8 créditos)</text>
    </g>
  </g>
</svg>
