<?xml version='1.0' encoding='utf-8'?>
<svg xmlns="http://www.w3.org/2000/svg" viewBox="0 0 400 300">
  <rect width="400" height="300" fill="#1e1e1e" />
  
  <defs>
    <marker id="arrowhead-dark" markerWidth="6" markerHeight="5" refX="6" refY="2.5" orient="auto">
      <polygon points="0 0, 6 2.5, 0 5" fill="#e0e0e0" />
    </marker>
  </defs>

  <line x1="100" y1="150" x2="200" y2="50" stroke="#e0e0e0" stroke-width="2" />
  <line x1="100" y1="150" x2="200" y2="250" stroke="#e0e0e0" stroke-width="2" />
  <line x1="200" y1="50" x2="300" y2="150" stroke="#e0e0e0" stroke-width="2" />
  <line x1="200" y1="250" x2="300" y2="150" stroke="#e0e0e0" stroke-width="2" />
  <line x1="100" y1="150" x2="300" y2="150" stroke="#e0e0e0" stroke-width="2" />

  <text x="260" y="40" font-family="Arial" font-size="20" fill="#e0e0e0">Vértices</text>
  <path d="M 255 40 Q 230 45 215 50" stroke="#e0e0e0" stroke-width="2" stroke-dasharray="4,4" fill="none" marker-end="url(#arrowhead-dark)" />

  <text x="80" y="30" font-family="Arial" font-size="20" fill="#e0e0e0">Aristas</text>
  <path d="M 130 35 Q 150 60 155 90" stroke="#e0e0e0" stroke-width="2" stroke-dasharray="4,4" fill="none" marker-end="url(#arrowhead-dark)" />

  <circle cx="100" cy="150" r="20" fill="#2d3748" stroke="#63b3ed" stroke-width="2" />
  <text x="100" y="155" font-family="Arial" font-size="14" fill="#e0e0e0" text-anchor="middle">1</text>

  <circle cx="200" cy="50" r="20" fill="#2d3748" stroke="#63b3ed" stroke-width="2" />
  <text x="200" y="55" font-family="Arial" font-size="14" fill="#e0e0e0" text-anchor="middle">2</text>

  <circle cx="200" cy="250" r="20" fill="#2d3748" stroke="#63b3ed" stroke-width="2" />
  <text x="200" y="255" font-family="Arial" font-size="14" fill="#e0e0e0" text-anchor="middle">3</text>

  <circle cx="300" cy="150" r="20" fill="#2d3748" stroke="#63b3ed" stroke-width="2" />
  <text x="300" y="155" font-family="Arial" font-size="14" fill="#e0e0e0" text-anchor="middle">4</text>
</svg>