<svg xmlns="http://www.w3.org/2000/svg" viewBox="0 0 400 300">
  <defs>
    <style>
      .edge { stroke: #e0e0e0; stroke-width: 2; }
      .weight-text { fill: #e0e0e0; font-weight: bold; font-family: Arial; font-size: 14px; }
      .node-text { fill: #e0e0e0; font-family: Arial; font-size: 14px; }
      .variable-node { fill: #2d3748; stroke: #63b3ed; stroke-width: 2; }
      .value-node { fill: #4a5568; stroke: #fc8181; stroke-width: 2; }
      .highlight-edge { stroke: #ef6c00; stroke-width: 2; }
      .highlight-text { fill: #ef6c00; font-weight: bold; font-family: Arial; font-size: 14px; }
      .background { fill: #1e1e1e; }
    </style>
  </defs>
  <rect width="100%" height="100%" class="background" />
  
  <!-- Edges -->
  <!-- A -> B (4) -->
  <line class="edge" x1="200" y1="50" x2="100" y2="120"/>
  <text class="node-text" x="140" y="80">4</text>

  <!-- A -> C (5) -->
  <line class="edge" x1="200" y1="50" x2="300" y2="120"/>
  <text class="node-text" x="260" y="80">5</text>

  <!-- A -> E (1) -->
  <line class="edge" x1="200" y1="50" x2="270" y2="220"/>
  <text class="node-text" x="220" y="150">1</text>

  <!-- B -> C (2) -->
  <line class="edge" x1="100" y1="120" x2="300" y2="120"/>
  <text class="node-text" x="200" y="115">2</text>

  <!-- C -> D (4) -->
  <line class="edge" x1="300" y1="120" x2="130" y2="220"/>
  <text class="node-text" x="230" y="180">4</text>

  <!-- D -> E (3) -->
  <line class="edge" x1="130" y1="220" x2="270" y2="220"/>
  <text class="node-text" x="200" y="235">3</text>

  <!-- Nodes -->
  <circle class="variable-node" cx="200" cy="50" r="20"/>
  <text class="node-text" x="200" y="55" text-anchor="middle">A</text>

  <circle class="variable-node" cx="100" cy="120" r="20"/>
  <text class="node-text" x="100" y="125" text-anchor="middle">B</text>

  <circle class="variable-node" cx="300" cy="120" r="20"/>
  <text class="node-text" x="300" y="125" text-anchor="middle">C</text>

  <circle class="variable-node" cx="130" cy="220" r="20"/>
  <text class="node-text" x="130" y="225" text-anchor="middle">D</text>

  <circle class="variable-node" cx="270" cy="220" r="20"/>
  <text class="node-text" x="270" y="225" text-anchor="middle">E</text>
</svg>
