<?xml version='1.0' encoding='utf-8'?>
<svg xmlns="http://www.w3.org/2000/svg" viewBox="0 0 600 275">
  <rect width="100%" height="100%" class="background" />
  <defs>
    <style>
      .edge { stroke: #e0e0e0; stroke-width: 2; }
      .weight-text { fill: #e0e0e0; font-weight: bold; font-family: Arial; font-size: 14px; }
      .node-text { fill: #e0e0e0; font-family: Arial; font-size: 14px; }
      .variable-node { fill: #2d3748; stroke: #63b3ed; stroke-width: 2; }
      .value-node { fill: #4a5568; stroke: #fc8181; stroke-width: 2; }
      .highlight-edge { stroke: #ef6c00; stroke-width: 2; }
      .highlight-text { fill: #ef6c00; font-weight: bold; font-family: Arial; font-size: 14px; }
      .background { fill: #1e1e1e; }
    </style>
    <marker id="arrowhead" markerWidth="6" markerHeight="5" refX="6" refY="2.5" orient="auto">
      <polygon points="0 0, 6 2.5, 0 5" fill="#e0e0e0" />
    </marker>
  </defs>
  <line class="edge" x1="150.0" y1="80.0" x2="226.0845213036123" y2="135.27864045000422" />
  <line class="edge" x1="226.0845213036123" y1="135.27864045000422" x2="197.02282018339787" y2="224.72135954999578" />
  <line class="edge" x1="197.02282018339787" y1="224.72135954999578" x2="102.97717981660216" y2="224.72135954999578" />
  <line class="edge" x1="102.97717981660216" y1="224.72135954999578" x2="73.91547869638771" y2="135.27864045000422" />
  <line class="edge" x1="450.0" y1="80.0" x2="526.0845213036123" y2="135.27864045000422" />
  <line class="edge" x1="450.0" y1="80.0" x2="497.02282018339787" y2="224.72135954999578" />
  <line class="edge" x1="450.0" y1="80.0" x2="402.9771798166022" y2="224.72135954999578" />
  <line class="edge" x1="450.0" y1="80.0" x2="373.9154786963877" y2="135.27864045000422" />
  <line class="edge" x1="526.0845213036123" y1="135.27864045000422" x2="497.02282018339787" y2="224.72135954999578" />
  <line class="edge" x1="526.0845213036123" y1="135.27864045000422" x2="402.9771798166022" y2="224.72135954999578" />
  <line class="edge" x1="526.0845213036123" y1="135.27864045000422" x2="373.9154786963877" y2="135.27864045000422" />
  <line class="edge" x1="497.02282018339787" y1="224.72135954999578" x2="402.9771798166022" y2="224.72135954999578" />
  <line class="edge" x1="497.02282018339787" y1="224.72135954999578" x2="373.9154786963877" y2="135.27864045000422" />
  <line class="edge" x1="402.9771798166022" y1="224.72135954999578" x2="373.9154786963877" y2="135.27864045000422" />
  <text class="node-text" x="150" y="40" text-anchor="middle">|V|=5, |E|=4</text>
  <text class="node-text" x="450" y="40" text-anchor="middle">|V|=5, |E|=10</text>
  <circle class="variable-node" cx="150.0" cy="80.0" r="15" />
  <circle class="variable-node" cx="226.0845213036123" cy="135.27864045000422" r="15" />
  <circle class="variable-node" cx="197.02282018339787" cy="224.72135954999578" r="15" />
  <circle class="variable-node" cx="102.97717981660216" cy="224.72135954999578" r="15" />
  <circle class="variable-node" cx="73.91547869638771" cy="135.27864045000422" r="15" />
  <circle class="variable-node" cx="450.0" cy="80.0" r="15" />
  <circle class="variable-node" cx="526.0845213036123" cy="135.27864045000422" r="15" />
  <circle class="variable-node" cx="497.02282018339787" cy="224.72135954999578" r="15" />
  <circle class="variable-node" cx="402.9771798166022" cy="224.72135954999578" r="15" />
  <circle class="variable-node" cx="373.9154786963877" cy="135.27864045000422" r="15" />
</svg>
