<?xml version='1.0' encoding='utf-8'?>
<svg xmlns="http://www.w3.org/2000/svg" viewBox="0 0 400 300">
  <defs>
    <style>
      .edge { fill: none; stroke: #333333; stroke-width: 2; }
      .weight-text { fill: #333333; font-weight: bold; font-family: Arial; font-size: 14px; }
      .node-text { fill: #333333; font-family: Arial; font-size: 14px; }
      .variable-node { fill: #e1f5ff; stroke: #4682b4; stroke-width: 2; }
      .value-node { fill: #ffe1e1; stroke: #e9967a; stroke-width: 2; }
      .highlight-edge { stroke: #ef6c00; stroke-width: 2; }
      .highlight-text { fill: #ef6c00; font-weight: bold; font-family: Arial; font-size: 14px; }
      .background { fill: #ffffff; }
    </style>
    <marker id="arrowhead" markerWidth="6" markerHeight="5" refX="6" refY="2.5" orient="auto">
      <polygon points="0 0, 6 2.5, 0 5" fill="#333333" />
    </marker>
  </defs>
  
  <line class="edge" x1="100" y1="150" x2="200" y2="50" />
  <line class="edge" x1="100" y1="150" x2="200" y2="250" />
  <line class="edge" x1="200" y1="50" x2="300" y2="150" />
  <line class="edge" x1="200" y1="250" x2="300" y2="150" />
  <line class="edge" x1="100" y1="150" x2="300" y2="150" />

  <text class="node-text" x="260" y="40">Vértices</text>
  <path class="edge" d="M 255 40 Q 230 45 215 50" stroke-dasharray="4,4" fill="none" marker-end="url(#arrowhead)" />

  <text class="node-text" x="80" y="30">Aristas</text>
  <path class="edge" d="M 130 35 Q 150 60 155 90" stroke-dasharray="4,4" fill="none" marker-end="url(#arrowhead)" />
  
  <circle class="variable-node" cx="100" cy="150" r="20" />
  <text class="node-text" x="100" y="155" text-anchor="middle">1</text>

  <circle class="variable-node" cx="200" cy="50" r="20" />
  <text class="node-text" x="200" y="55" text-anchor="middle">2</text>

  <circle class="variable-node" cx="200" cy="250" r="20" />
  <text class="node-text" x="200" y="255" text-anchor="middle">3</text>

  <circle class="variable-node" cx="300" cy="150" r="20" />
  <text class="node-text" x="300" y="155" text-anchor="middle">4</text>
</svg>