<?xml version='1.0' encoding='utf-8'?>
<svg xmlns="http://www.w3.org/2000/svg" viewBox="0 0 800 350">
  <defs>
    <marker id="arrowhead" markerWidth="6" markerHeight="5" refX="6" refY="2.5" orient="auto">
      <polygon points="0 0, 6 2.5, 0 5" fill="#333333" />
    </marker>
  </defs>

  
  <g transform="translate(350, 20)">
    <rect width="60" height="30" fill="#e1f5ff" stroke="#4682b4" stroke-width="2" />
    <text x="30" y="20" font-family="Arial" font-size="12" fill="#333333" text-anchor="middle">PICO</text>
  </g>

  
  <g transform="translate(150, 100)">
    <rect width="60" height="30" fill="#e1f5ff" stroke="#4682b4" stroke-width="2" />
    <text x="30" y="20" font-family="Arial" font-size="12" fill="#333333" text-anchor="middle">PALA</text>
  </g>

  
  
  <g transform="translate(450, 100)">
    <rect width="60" height="30" fill="#e1f5ff" stroke="#4682b4" stroke-width="2" />
    <text x="30" y="20" font-family="Arial" font-size="12" fill="#333333" text-anchor="middle">PIEL</text>
  </g>

  
  <g transform="translate(650, 100)">
    <rect width="60" height="30" fill="#e1f5ff" stroke="#4682b4" stroke-width="2" />
    <text x="30" y="20" font-family="Arial" font-size="12" fill="#333333" text-anchor="middle">POCO</text>
  </g>

  
  <g transform="translate(50, 200)">
    <rect width="60" height="30" fill="#ffe1e1" stroke="#e9967a" stroke-width="2" />
    <text x="30" y="20" font-family="Arial" font-size="12" fill="#333333" text-anchor="middle">PACO</text>
  </g>

  <g transform="translate(150, 200)">
    <rect width="120" height="30" fill="#ffe1e1" stroke="#e9967a" stroke-width="2" />
    <line x1="60" y1="0" x2="60" y2="30" stroke="#e9967a" stroke-width="2" />
    <text x="30" y="20" font-family="Arial" font-size="12" fill="#333333" text-anchor="middle">PALA</text>
    <text x="90" y="20" font-family="Arial" font-size="12" fill="#333333" text-anchor="middle">PECA</text>
  </g>

  <g transform="translate(350, 200)">
    <rect width="60" height="30" fill="#ffe1e1" stroke="#e9967a" stroke-width="2" />
    <text x="30" y="20" font-family="Arial" font-size="12" fill="#333333" text-anchor="middle">PICO</text>
  </g>

  <g transform="translate(430, 200)">
    <rect width="60" height="30" fill="#ffe1e1" stroke="#e9967a" stroke-width="2" />
    <text x="30" y="20" font-family="Arial" font-size="12" fill="#333333" text-anchor="middle">PIEL</text>
  </g>

  <g transform="translate(510, 200)">
    <rect width="120" height="30" fill="#ffe1e1" stroke="#e9967a" stroke-width="2" />
    <line x1="60" y1="0" x2="60" y2="30" stroke="#e9967a" stroke-width="2" />
    <text x="30" y="20" font-family="Arial" font-size="12" fill="#333333" text-anchor="middle">PILA</text>
    <text x="90" y="20" font-family="Arial" font-size="12" fill="#333333" text-anchor="middle">PIPA</text>
  </g>

  <g transform="translate(650, 200)">
    <rect width="120" height="30" fill="#ffe1e1" stroke="#e9967a" stroke-width="2" />
    <line x1="60" y1="0" x2="60" y2="30" stroke="#e9967a" stroke-width="2" />
    <text x="30" y="20" font-family="Arial" font-size="12" fill="#333333" text-anchor="middle">POCO</text>
    <text x="90" y="20" font-family="Arial" font-size="12" fill="#333333" text-anchor="middle">POLO</text>
  </g>

  
  <line x1="350" y1="50" x2="180" y2="100" stroke="#333333" stroke-width="2" marker-end="url(#arrowhead)" />
  
  
  <line x1="410" y1="50" x2="480" y2="100" stroke="#333333" stroke-width="2" marker-end="url(#arrowhead)" />
  <line x1="410" y1="50" x2="680" y2="100" stroke="#333333" stroke-width="2" marker-end="url(#arrowhead)" />

  <line x1="150" y1="130" x2="80" y2="200" stroke="#333333" stroke-width="2" marker-end="url(#arrowhead)" />
  <line x1="210" y1="130" x2="210" y2="200" stroke="#333333" stroke-width="2" marker-end="url(#arrowhead)" />
  
  <line x1="450" y1="130" x2="380" y2="200" stroke="#333333" stroke-width="2" marker-end="url(#arrowhead)" />
  <line x1="510" y1="130" x2="460" y2="200" stroke="#333333" stroke-width="2" marker-end="url(#arrowhead)" />
  
  <line x1="650" y1="130" x2="570" y2="200" stroke="#333333" stroke-width="2" marker-end="url(#arrowhead)" />
  <line x1="710" y1="130" x2="710" y2="200" stroke="#333333" stroke-width="2" marker-end="url(#arrowhead)" />

  
  <line x1="110" y1="215" x2="150" y2="215" stroke="#e9967a" stroke-width="2" stroke-dasharray="5,5" marker-end="url(#arrowhead)" />
  <line x1="270" y1="215" x2="350" y2="215" stroke="#e9967a" stroke-width="2" stroke-dasharray="5,5" marker-end="url(#arrowhead)" />
  <line x1="410" y1="215" x2="430" y2="215" stroke="#e9967a" stroke-width="2" stroke-dasharray="5,5" marker-end="url(#arrowhead)" />
  <line x1="490" y1="215" x2="510" y2="215" stroke="#e9967a" stroke-width="2" stroke-dasharray="5,5" marker-end="url(#arrowhead)" />
  <line x1="630" y1="215" x2="650" y2="215" stroke="#e9967a" stroke-width="2" stroke-dasharray="5,5" marker-end="url(#arrowhead)" />

  
  <g transform="translate(550, 100)">
     <rect width="60" height="30" fill="#fff9c4" stroke="#d4a017" stroke-width="2" />
     <text x="30" y="20" font-family="Arial" font-size="12" fill="#333333" text-anchor="middle">PILA</text>
  </g>
  <path d="M 580 100 Q 580 60 410 35" stroke="#d4a017" stroke-width="2" fill="none" marker-end="url(#arrowhead)" />

</svg>