<?xml version='1.0' encoding='utf-8'?>
<svg xmlns="http://www.w3.org/2000/svg" viewBox="0 0 600 300">
  <defs>
    <marker id="arrowhead" markerWidth="6" markerHeight="5" refX="6" refY="2.5" orient="auto">
      <polygon points="0 0, 6 2.5, 0 5" fill="#333333" />
    </marker>
  </defs>
  <line x1="150.0" y1="80.0" x2="226.0845213036123" y2="135.27864045000422" stroke="#333333" stroke-width="2" />
  <line x1="226.0845213036123" y1="135.27864045000422" x2="197.02282018339787" y2="224.72135954999578" stroke="#333333" stroke-width="2" />
  <line x1="197.02282018339787" y1="224.72135954999578" x2="102.97717981660216" y2="224.72135954999578" stroke="#333333" stroke-width="2" />
  <line x1="102.97717981660216" y1="224.72135954999578" x2="73.91547869638771" y2="135.27864045000422" stroke="#333333" stroke-width="2" />
  <line x1="450.0" y1="80.0" x2="526.0845213036123" y2="135.27864045000422" stroke="#333333" stroke-width="2" />
  <line x1="450.0" y1="80.0" x2="497.02282018339787" y2="224.72135954999578" stroke="#333333" stroke-width="2" />
  <line x1="450.0" y1="80.0" x2="402.9771798166022" y2="224.72135954999578" stroke="#333333" stroke-width="2" />
  <line x1="450.0" y1="80.0" x2="373.9154786963877" y2="135.27864045000422" stroke="#333333" stroke-width="2" />
  <line x1="526.0845213036123" y1="135.27864045000422" x2="497.02282018339787" y2="224.72135954999578" stroke="#333333" stroke-width="2" />
  <line x1="526.0845213036123" y1="135.27864045000422" x2="402.9771798166022" y2="224.72135954999578" stroke="#333333" stroke-width="2" />
  <line x1="526.0845213036123" y1="135.27864045000422" x2="373.9154786963877" y2="135.27864045000422" stroke="#333333" stroke-width="2" />
  <line x1="497.02282018339787" y1="224.72135954999578" x2="402.9771798166022" y2="224.72135954999578" stroke="#333333" stroke-width="2" />
  <line x1="497.02282018339787" y1="224.72135954999578" x2="373.9154786963877" y2="135.27864045000422" stroke="#333333" stroke-width="2" />
  <line x1="402.9771798166022" y1="224.72135954999578" x2="373.9154786963877" y2="135.27864045000422" stroke="#333333" stroke-width="2" />
  <text x="150" y="40" font-family="Arial" font-size="16" fill="#333333" text-anchor="middle">|V|=5, |E|=4</text>
  <text x="450" y="40" font-family="Arial" font-size="16" fill="#333333" text-anchor="middle">|V|=5, |E|=10</text>
  <circle cx="150.0" cy="80.0" r="15" fill="#e1f5ff" stroke="#4682b4" stroke-width="2" />
  <circle cx="226.0845213036123" cy="135.27864045000422" r="15" fill="#e1f5ff" stroke="#4682b4" stroke-width="2" />
  <circle cx="197.02282018339787" cy="224.72135954999578" r="15" fill="#e1f5ff" stroke="#4682b4" stroke-width="2" />
  <circle cx="102.97717981660216" cy="224.72135954999578" r="15" fill="#e1f5ff" stroke="#4682b4" stroke-width="2" />
  <circle cx="73.91547869638771" cy="135.27864045000422" r="15" fill="#e1f5ff" stroke="#4682b4" stroke-width="2" />
  <circle cx="450.0" cy="80.0" r="15" fill="#e1f5ff" stroke="#4682b4" stroke-width="2" />
  <circle cx="526.0845213036123" cy="135.27864045000422" r="15" fill="#e1f5ff" stroke="#4682b4" stroke-width="2" />
  <circle cx="497.02282018339787" cy="224.72135954999578" r="15" fill="#e1f5ff" stroke="#4682b4" stroke-width="2" />
  <circle cx="402.9771798166022" cy="224.72135954999578" r="15" fill="#e1f5ff" stroke="#4682b4" stroke-width="2" />
  <circle cx="373.9154786963877" cy="135.27864045000422" r="15" fill="#e1f5ff" stroke="#4682b4" stroke-width="2" />
</svg>