<?xml version='1.0' encoding='utf-8'?>
<svg xmlns="http://www.w3.org/2000/svg" viewBox="0 0 500 300">
  <defs>
    
  </defs>

  
  <g stroke="#333333" stroke-width="2">
    
    <line x1="80" y1="150" x2="180" y2="80" /> 
    <line x1="80" y1="150" x2="180" y2="150" /> 
    <line x1="80" y1="150" x2="180" y2="220" /> 
    
    
    <line x1="180" y1="80" x2="180" y2="150" /> 
    <line x1="180" y1="80" x2="300" y2="80" /> 
    
    
    <line x1="180" y1="150" x2="300" y2="180" /> 
    
    
    <line x1="180" y1="220" x2="300" y2="180" /> 
    
    
    <line x1="300" y1="80" x2="300" y2="180" /> 
    
    
    <line x1="300" y1="180" x2="420" y2="150" /> 
  </g>

  
  
  <g transform="translate(50, 135)">
    <rect width="80" height="30" rx="15" fill="#e1f5ff" stroke="#4682b4" stroke-width="2" />
    <text x="40" y="20" font-family="Arial" font-size="12" fill="#333333" text-anchor="middle">Ana</text>
  </g>

  
  <g transform="translate(140, 65)">
    <rect width="80" height="30" rx="15" fill="#e1f5ff" stroke="#4682b4" stroke-width="2" />
    <text x="40" y="20" font-family="Arial" font-size="12" fill="#333333" text-anchor="middle">Bruno</text>
  </g>

  
  <g transform="translate(140, 135)">
    <rect width="80" height="30" rx="15" fill="#e1f5ff" stroke="#4682b4" stroke-width="2" />
    <text x="40" y="20" font-family="Arial" font-size="12" fill="#333333" text-anchor="middle">Clara</text>
  </g>

  
  <g transform="translate(140, 205)">
    <rect width="80" height="30" rx="15" fill="#e1f5ff" stroke="#4682b4" stroke-width="2" />
    <text x="40" y="20" font-family="Arial" font-size="12" fill="#333333" text-anchor="middle">Diego</text>
  </g>

  
  <g transform="translate(260, 65)">
    <rect width="80" height="30" rx="15" fill="#e1f5ff" stroke="#4682b4" stroke-width="2" />
    <text x="40" y="20" font-family="Arial" font-size="12" fill="#333333" text-anchor="middle">Elena</text>
  </g>

  
  <g transform="translate(260, 165)">
    <rect width="80" height="30" rx="15" fill="#e1f5ff" stroke="#4682b4" stroke-width="2" />
    <text x="40" y="20" font-family="Arial" font-size="12" fill="#333333" text-anchor="middle">Fernando</text>
  </g>

  
  <g transform="translate(380, 135)">
    <rect width="80" height="30" rx="15" fill="#e1f5ff" stroke="#4682b4" stroke-width="2" />
    <text x="40" y="20" font-family="Arial" font-size="12" fill="#333333" text-anchor="middle">Gabriela</text>
  </g>

</svg>