<?xml version='1.0' encoding='utf-8'?>
<svg xmlns="http://www.w3.org/2000/svg" viewBox="0 0 1200 1400">
  <defs>
    <marker id="arrowhead-light" markerWidth="6" markerHeight="5" refX="6" refY="2.5" orient="auto">
      <polygon points="0 0, 6 2.5, 0 5" fill="#333333" />
    </marker>
  </defs>

  <rect width="1200" height="1400" fill="#ffffff" />

  <g font-family="Arial" font-size="14" text-anchor="middle" fill="#333333">

    <text x="600" y="40" font-size="20" font-weight="bold">Ciclo Básico Común</text>
    <g font-weight="bold" text-anchor="end">
        <text x="150" y="145">1 año - 1C</text>
        <text x="150" y="295">1 año - 2C</text>
        <text x="150" y="445">2 año - 1C</text>
        <text x="150" y="595">2 año - 2C</text>
        <text x="150" y="745">3 año - 1C</text>
        <text x="150" y="895">3 año - 2C</text>
        <text x="150" y="1045">4 año - 1C</text>
        <text x="150" y="1250">4 año - 2C</text>
    </g>

    <g fill="none" stroke="#333333" stroke-width="2">
      
      <path d="M 300 180 V 230" /> 
      <path d="M 600 180 V 230 H 300" />
      
      <path d="M 300 200 H 900 V 380" /> <path d="M 300 980 H 900" /> <path d="M 300 930 V 980" /> <path d="M 900 780 V 980" /> <path d="M 600 480 V 515 H 760 V 980" /> 

      <path d="M 600 330 V 365 H 40 V 815 H 300 V 830" />
      <path d="M 300 480 V 515 H 60 V 965 H 300 V 980" />
      
      <path d="M 600 180 V 230" /> <path d="M 300 330 V 380" /> <path d="M 300 480 V 530" /> <path d="M 900 480 V 530" /> <path d="M 300 630 V 645" /> <path d="M 600 630 V 680" /> <path d="M 900 630 V 680" /> <path d="M 300 780 V 830" /> <path d="M 600 480 V 500" /> </g>

    <g fill="none" stroke="#333333" stroke-width="2" marker-end="url(#arrowhead-light)">
      
      <path d="M 300 230 V 250" />
      
      <path d="M 600 230 V 250" />
      
      <path d="M 900 380 V 400" />

      <path d="M 300 380 V 400" /> <path d="M 300 365 H 550 V 550" /> <path d="M 300 365 H 600 V 400" /> <path d="M 300 830 V 850" />

      <path d="M 300 530 V 550" /> <path d="M 300 980 V 1000" /> <path d="M 900 530 V 550" /> <path d="M 300 645 H 600 V 850" /> <path d="M 600 680 V 700" /> <path d="M 600 500 V 515 H 740 V 665 H 600 V 700" /> <path d="M 900 680 V 700" /> <path d="M 300 830 V 850" />

      <path d="M 620 980 V 1000" />

    </g>
    
    <line x1="100" y1="1150" x2="1100" y2="1150" stroke="#333333" stroke-width="2" stroke-dasharray="5,5" />

    <g stroke="#4682b4" stroke-width="2" fill="#e1f5ff">
        <rect x="180" y="100" width="240" height="80" rx="8" />
        <rect x="480" y="100" width="240" height="80" rx="8" />
        <rect x="180" y="250" width="240" height="80" rx="8" />
        <rect x="480" y="250" width="240" height="80" rx="8" />
        <rect x="180" y="400" width="240" height="80" rx="8" />
        <rect x="480" y="400" width="240" height="80" rx="8" />
        <rect x="780" y="400" width="240" height="80" rx="8" />
        <rect x="180" y="550" width="240" height="80" rx="8" />
        <rect x="480" y="550" width="240" height="80" rx="8" />
        <rect x="780" y="550" width="240" height="80" rx="8" />
        <rect x="180" y="700" width="240" height="80" rx="8" />
        <rect x="480" y="700" width="240" height="80" rx="8" />
        <rect x="780" y="700" width="240" height="80" rx="8" />
        <rect x="180" y="850" width="240" height="80" rx="8" />
        <rect x="480" y="850" width="240" height="80" rx="8" />
        <rect x="780" y="850" width="240" height="80" rx="8" />
        <rect x="180" y="1000" width="240" height="80" rx="8" />
        <rect x="480" y="1000" width="280" height="80" rx="8" />
        <rect x="780" y="1000" width="240" height="80" rx="8" />
        <rect x="180" y="1200" width="400" height="80" rx="8" />
        <rect x="620" y="1200" width="400" height="80" rx="8" />
    </g>

    <g fill="#333333">
        <text x="300" y="135">Introducción a la<tspan x="300" dy="1.2em">Programación (10 hs)</tspan></text>
        <text x="600" y="145">Algebra I (10 hs)</text>
        <text x="300" y="285">Algoritmos y<tspan x="300" dy="1.2em">Est. de Datos (15 hs)</tspan></text>
        <text x="600" y="295">Análisis I (10 hs)</text>
        <text x="300" y="435">Paradigmas de<tspan x="300" dy="1.2em">Programación (10 hs)</tspan></text>
        <text x="600" y="435">Técnicas de Diseño<tspan x="600" dy="1.2em">de Algoritmos (10 hs)</tspan></text>
        <text x="900" y="435">Sistemas<tspan x="900" dy="1.2em">Digitales (5 hs)</tspan></text>
        <text x="300" y="585">Ingeniería de<tspan x="300" dy="1.2em">Software (10 hs)</tspan></text>
        <text x="600" y="575">Lenguajes Formales,<tspan x="600" dy="1.2em">Autómatas y</tspan><tspan x="600" dy="1.2em">Computabilidad (5 hs)</tspan></text>
        <text x="900" y="585">Arquitectura y Org.<tspan x="900" dy="1.2em">de Computadores (10 hs)</tspan></text>
        <text x="300" y="735">Algebra Lineal<tspan x="300" dy="1.2em">Computacional (10 hs)</tspan></text>
        <text x="600" y="735">Complejidad<tspan x="600" dy="1.2em">Computacional (5 hs)</tspan></text>
        <text x="900" y="735">Sistemas<tspan x="900" dy="1.2em">Operativos (10 hs)</tspan></text>
        <text x="300" y="885">Estadística<tspan x="300" dy="1.2em">Computacional (10 hs)</tspan></text>
        <text x="600" y="885">Almacenamiento y<tspan x="600" dy="1.2em">Recuperación (10 hs)</tspan></text>
        <text x="900" y="885">Optativas (4 créditos)<tspan x="900" dy="1.2em">(5 hs)</tspan></text>
        <text x="300" y="1035">Programación<tspan x="300" dy="1.2em">Conc. y Paralela (10 hs)</tspan></text>
        <text x="620" y="1035">Redes de Com. y<tspan x="620" dy="1.2em">Cómputo Distribuido (10 hs)</tspan></text>
        <text x="900" y="1035">Optativas (4 créditos)<tspan x="900" dy="1.2em">(5 hs)</tspan></text>
        <text x="380" y="1235">Trabajo Final<tspan x="380" dy="1.2em">Tesis de Licenciatura (15 hs)</tspan></text>
        <text x="820" y="1245">Optativas (8 créditos)</text>
    </g>
  </g>
</svg>