<?xml version='1.0' encoding='utf-8'?>
<svg xmlns="http://www.w3.org/2000/svg" viewBox="0 0 800 300">

  <defs>
    <style>
      .title { font-family: ui-sans-serif, system-ui, sans-serif; font-size: 20px; text-anchor: middle; fill: #333333; }
      .code { font-family: menlo, consola, 'DejaVu Sans Mono'; font-size: 16px; fill: #333333; text-anchor: middle; }
      .code-example { font-family: menlo, consola, 'DejaVu Sans Mono'; font-size: 18px; fill: #333333; text-anchor: start; }
      .variable-node { fill: #e1f5ff; stroke: #4682b4; stroke-width: 2; }
      .value-node { fill: #ffe1e1; stroke: #e9967a; stroke-width: 2; }
      .arrow { stroke: #333333; stroke-width: 2; marker-end: url(#arrowhead); }
      .note { font-family: ui-sans-serif, system-ui, sans-serif; font-size: 14px; fill: #666666; text-anchor: middle; font-style: italic; }
    </style>
    <marker id="arrowhead" markerWidth="6" markerHeight="5" refX="6" refY="2.5" orient="auto">
      <polygon points="0 0, 6 2.5, 0 5" fill="#333333" />
    </marker>
  </defs>

  <rect width="800" height="400" fill="#f0f2f5" />

  <text x="400" y="40" class="title">Inmutabilidad (Strings)</text>

  <g transform="translate(50, 100)">
    <text x="100" y="-20" class="code-example" text-anchor="left">s1 = "hola"</text>
    <text x="100" y="5" class="code-example" text-anchor="left">s2 = s1</text>

    <rect x="20" y="20" width="60" height="40" rx="5" class="variable-node" />
    <text x="50" y="45" class="code" text-anchor="middle">s1</text>

    <rect x="20" y="80" width="60" height="40" rx="5" class="variable-node" />
    <text x="50" y="105" class="code" text-anchor="middle">s2</text>

    <path d="M 90 40 L 170 70" class="arrow" />
    <path d="M 90 100 L 170 70" class="arrow" />

    <rect x="180" y="50" width="100" height="40" rx="5" class="value-node" />
    <text x="230" y="75" class="code" text-anchor="middle">"hola"</text>
  </g>

  <g transform="translate(400, 100)">
    <text x="150" y="-20" class="code-example">s1 += " mundo"</text>

    <rect x="20" y="20" width="60" height="40" rx="5" class="variable-node" />
    <text x="50" y="45" class="code" text-anchor="middle">s1</text>

    <rect x="20" y="80" width="60" height="40" rx="5" class="variable-node" />
    <text x="50" y="105" class="code" text-anchor="middle">s2</text>

    <path d="M 90 40 L 170 40" class="arrow" />
    <path d="M 90 100 L 170 100" class="arrow" />

    <rect x="180" y="20" width="160" height="40" rx="5" class="value-node" />
    <text x="260" y="45" class="code" text-anchor="middle">"hola mundo"</text>

    <rect x="180" y="80" width="100" height="40" rx="5" class="value-node" />
    <text x="230" y="105" class="code" text-anchor="middle">"hola"</text>
  </g>
</svg>
