<?xml version='1.0' encoding='utf-8'?>
<svg xmlns="http://www.w3.org/2000/svg" viewBox="0 0 600 350">
  <rect x="250" y="20" width="100" height="40" rx="5" fill="#e1f5ff" stroke="#4682b4" stroke-width="2" />
  <text x="300" y="45" font-family="Arial" font-size="14" fill="#333333" text-anchor="middle">poema</text>

  
  <text x="360" y="30" font-family="Arial" font-size="10" fill="#555555">@fecha="Abril de 1915"</text>
  <text x="360" y="45" font-family="Arial" font-size="10" fill="#555555">@lugar="Granada"</text>

  
  
  <rect x="50" y="100" width="100" height="40" rx="5" fill="#e1f5ff" stroke="#4682b4" stroke-width="2" />
  <text x="100" y="125" font-family="Arial" font-size="14" fill="#333333" text-anchor="middle">titulo</text>
  
  
  <rect x="170" y="100" width="80" height="40" rx="5" fill="#e1f5ff" stroke="#4682b4" stroke-width="2" />
  <text x="210" y="125" font-family="Arial" font-size="14" fill="#333333" text-anchor="middle">verso</text>

  <rect x="270" y="100" width="80" height="40" rx="5" fill="#e1f5ff" stroke="#4682b4" stroke-width="2" />
  <text x="310" y="125" font-family="Arial" font-size="14" fill="#333333" text-anchor="middle">verso</text>

  <rect x="370" y="100" width="80" height="40" rx="5" fill="#e1f5ff" stroke="#4682b4" stroke-width="2" />
  <text x="410" y="125" font-family="Arial" font-size="14" fill="#333333" text-anchor="middle">verso</text>

  <rect x="470" y="100" width="80" height="40" rx="5" fill="#e1f5ff" stroke="#4682b4" stroke-width="2" />
  <text x="510" y="125" font-family="Arial" font-size="14" fill="#333333" text-anchor="middle">verso</text>

  
  <line x1="300" y1="60" x2="100" y2="100" stroke="#333333" stroke-width="2" />
  <line x1="300" y1="60" x2="210" y2="100" stroke="#333333" stroke-width="2" />
  <line x1="300" y1="60" x2="310" y2="100" stroke="#333333" stroke-width="2" />
  <line x1="300" y1="60" x2="410" y2="100" stroke="#333333" stroke-width="2" />
  <line x1="300" y1="60" x2="510" y2="100" stroke="#333333" stroke-width="2" />

  
  <rect x="50" y="180" width="100" height="40" rx="5" fill="#ffe1e1" stroke="#e9967a" stroke-width="2" />
  <text x="100" y="205" font-family="Arial" font-size="12" fill="#333333" text-anchor="middle">"Alba"</text>

  <rect x="170" y="180" width="80" height="60" rx="5" fill="#ffe1e1" stroke="#e9967a" stroke-width="2" />
  <text x="210" y="200" font-family="Arial" font-size="10" fill="#333333" text-anchor="middle">"Mi corazón</text>
  <text x="210" y="215" font-family="Arial" font-size="10" fill="#333333" text-anchor="middle">oprimido"</text>

  <rect x="270" y="250" width="80" height="80" rx="5" fill="#ffe1e1" stroke="#e9967a" stroke-width="2" />
  <text x="310" y="275" font-family="Arial" font-size="10" fill="#333333" text-anchor="middle">"siente junto</text>
  <text x="310" y="290" font-family="Arial" font-size="10" fill="#333333" text-anchor="middle">a la</text>
  <text x="310" y="305" font-family="Arial" font-size="10" fill="#333333" text-anchor="middle">alborada"</text>

  <rect x="370" y="180" width="80" height="60" rx="5" fill="#ffe1e1" stroke="#e9967a" stroke-width="2" />
  <text x="410" y="200" font-family="Arial" font-size="10" fill="#333333" text-anchor="middle">"el dolor de</text>
  <text x="410" y="215" font-family="Arial" font-size="10" fill="#333333" text-anchor="middle">sus amores"</text>

  <rect x="470" y="250" width="80" height="80" rx="5" fill="#ffe1e1" stroke="#e9967a" stroke-width="2" />
  <text x="510" y="275" font-family="Arial" font-size="10" fill="#333333" text-anchor="middle">"y el sueño</text>
  <text x="510" y="290" font-family="Arial" font-size="10" fill="#333333" text-anchor="middle">de las</text>
  <text x="510" y="305" font-family="Arial" font-size="10" fill="#333333" text-anchor="middle">distancias."</text>

  
  <line x1="100" y1="140" x2="100" y2="180" stroke="#333333" stroke-width="2" />
  <line x1="210" y1="140" x2="210" y2="180" stroke="#333333" stroke-width="2" />
  <line x1="310" y1="140" x2="310" y2="250" stroke="#333333" stroke-width="2" />
  <line x1="410" y1="140" x2="410" y2="180" stroke="#333333" stroke-width="2" />
  <line x1="510" y1="140" x2="510" y2="250" stroke="#333333" stroke-width="2" />

</svg>