<svg xmlns="http://www.w3.org/2000/svg" viewBox="0 0 400 300">
  <rect width="400" height="300" fill="#ffffff"/>
  <defs>
    <marker id="arrowhead" markerWidth="10" markerHeight="7" refX="19" refY="3.5" orient="auto">
      <polygon points="0 0, 10 3.5, 0 7" fill="#333333"/>
    </marker>
  </defs>

  <!-- Edges -->
  <!-- A -> B (4) -->
  <line x1="50" y1="150" x2="150" y2="50" stroke="#333333" stroke-width="2" marker-end="url(#arrowhead)"/>
  <text x="90" y="90" font-family="Arial" font-size="12" fill="#333333">4</text>

  <!-- A -> C (1) -->
  <line x1="50" y1="150" x2="150" y2="250" stroke="#333333" stroke-width="2" marker-end="url(#arrowhead)"/>
  <text x="90" y="210" font-family="Arial" font-size="12" fill="#333333">1</text>

  <!-- B -> E (3) -->
  <line x1="150" y1="50" x2="350" y2="150" stroke="#333333" stroke-width="2" marker-end="url(#arrowhead)"/>
  <text x="250" y="90" font-family="Arial" font-size="12" fill="#333333">3</text>

  <!-- C -> B (2) -->
  <line x1="150" y1="250" x2="150" y2="50" stroke="#333333" stroke-width="2" marker-end="url(#arrowhead)"/>
  <text x="160" y="150" font-family="Arial" font-size="12" fill="#333333">2</text>

  <!-- C -> D (2) -->
  <line x1="150" y1="250" x2="250" y2="250" stroke="#333333" stroke-width="2" marker-end="url(#arrowhead)"/>
  <text x="200" y="240" font-family="Arial" font-size="12" fill="#333333">2</text>

  <!-- D -> E (3) -->
  <line x1="250" y1="250" x2="350" y2="150" stroke="#333333" stroke-width="2" marker-end="url(#arrowhead)"/>
  <text x="310" y="210" font-family="Arial" font-size="12" fill="#333333">3</text>

  <!-- Nodes -->
  <circle cx="50" cy="150" r="20" fill="#e1f5ff" stroke="#4682b4" stroke-width="2"/>
  <text x="50" y="155" font-family="Arial" font-size="14" fill="#333333" text-anchor="middle">A</text>

  <circle cx="150" cy="50" r="20" fill="#e1f5ff" stroke="#4682b4" stroke-width="2"/>
  <text x="150" y="55" font-family="Arial" font-size="14" fill="#333333" text-anchor="middle">B</text>

  <circle cx="150" cy="250" r="20" fill="#e1f5ff" stroke="#4682b4" stroke-width="2"/>
  <text x="150" y="255" font-family="Arial" font-size="14" fill="#333333" text-anchor="middle">C</text>

  <circle cx="250" cy="250" r="20" fill="#e1f5ff" stroke="#4682b4" stroke-width="2"/>
  <text x="250" y="255" font-family="Arial" font-size="14" fill="#333333" text-anchor="middle">D</text>

  <circle cx="350" cy="150" r="20" fill="#e1f5ff" stroke="#4682b4" stroke-width="2"/>
  <text x="350" y="155" font-family="Arial" font-size="14" fill="#333333" text-anchor="middle">E</text>
</svg>
