<svg xmlns="http://www.w3.org/2000/svg" viewBox="0 0 600 450">
  <rect width="600" height="450" fill="#ffffff"/>
  <defs>
    <marker id="arrowhead" markerWidth="10" markerHeight="7" refX="19" refY="3.5" orient="auto">
      <polygon points="0 0, 10 3.5, 0 7" fill="#333333"/>
    </marker>
  </defs>

  <!-- Groups -->
  <rect x="50" y="20" width="200" height="410" rx="10" fill="#f0f8ff" stroke="#add8e6" stroke-width="1" stroke-dasharray="5,5"/>
  <text x="100" y="40" font-family="Arial" font-size="14" fill="#333333" font-weight="bold" text-anchor="middle">Vocabulario</text>

  <rect x="350" y="20" width="200" height="410" rx="10" fill="#f0fff0" stroke="#90ee90" stroke-width="1" stroke-dasharray="5,5"/>
  <text x="450" y="40" font-family="Arial" font-size="14" fill="#333333" font-weight="bold" text-anchor="middle">Postings</text>

  <!-- Terms -->
  <g transform="translate(70, 60)">
    <rect y="0" width="160" height="30" rx="5" fill="#e1f5ff" stroke="#4682b4" stroke-width="2"/>
    <text x="80" y="20" font-family="Arial" font-size="12" fill="#333333" text-anchor="middle">python</text>

    <rect y="40" width="160" height="30" rx="5" fill="#e1f5ff" stroke="#4682b4" stroke-width="2"/>
    <text x="80" y="60" font-family="Arial" font-size="12" fill="#333333" text-anchor="middle">lenguaje</text>

    <rect y="80" width="160" height="30" rx="5" fill="#e1f5ff" stroke="#4682b4" stroke-width="2"/>
    <text x="80" y="100" font-family="Arial" font-size="12" fill="#333333" text-anchor="middle">programación</text>

    <rect y="120" width="160" height="30" rx="5" fill="#e1f5ff" stroke="#4682b4" stroke-width="2"/>
    <text x="80" y="140" font-family="Arial" font-size="12" fill="#333333" text-anchor="middle">java</text>

    <rect y="160" width="160" height="30" rx="5" fill="#e1f5ff" stroke="#4682b4" stroke-width="2"/>
    <text x="80" y="180" font-family="Arial" font-size="12" fill="#333333" text-anchor="middle">orientado</text>

    <rect y="200" width="160" height="30" rx="5" fill="#e1f5ff" stroke="#4682b4" stroke-width="2"/>
    <text x="80" y="220" font-family="Arial" font-size="12" fill="#333333" text-anchor="middle">objetos</text>

    <rect y="240" width="160" height="30" rx="5" fill="#e1f5ff" stroke="#4682b4" stroke-width="2"/>
    <text x="80" y="260" font-family="Arial" font-size="12" fill="#333333" text-anchor="middle">lenguajes</text>

    <rect y="280" width="160" height="30" rx="5" fill="#e1f5ff" stroke="#4682b4" stroke-width="2"/>
    <text x="80" y="300" font-family="Arial" font-size="12" fill="#333333" text-anchor="middle">populares</text>

    <rect y="320" width="160" height="30" rx="5" fill="#e1f5ff" stroke="#4682b4" stroke-width="2"/>
    <text x="80" y="340" font-family="Arial" font-size="12" fill="#333333" text-anchor="middle">machine</text>

    <rect y="360" width="160" height="30" rx="5" fill="#e1f5ff" stroke="#4682b4" stroke-width="2"/>
    <text x="80" y="380" font-family="Arial" font-size="12" fill="#333333" text-anchor="middle">learning</text>
  </g>

  <!-- Postings -->
  <g transform="translate(370, 60)">
    <rect y="0" width="160" height="30" rx="5" fill="#e1ffe1" stroke="#2e8b57" stroke-width="2"/>
    <text x="80" y="20" font-family="Arial" font-size="12" fill="#333333" text-anchor="middle">[1, 3, 4]</text>

    <rect y="40" width="160" height="30" rx="5" fill="#e1ffe1" stroke="#2e8b57" stroke-width="2"/>
    <text x="80" y="60" font-family="Arial" font-size="12" fill="#333333" text-anchor="middle">[1, 2]</text>

    <rect y="80" width="160" height="30" rx="5" fill="#e1ffe1" stroke="#2e8b57" stroke-width="2"/>
    <text x="80" y="100" font-family="Arial" font-size="12" fill="#333333" text-anchor="middle">[1]</text>

    <rect y="120" width="160" height="30" rx="5" fill="#e1ffe1" stroke="#2e8b57" stroke-width="2"/>
    <text x="80" y="140" font-family="Arial" font-size="12" fill="#333333" text-anchor="middle">[2, 3]</text>

    <rect y="160" width="160" height="30" rx="5" fill="#e1ffe1" stroke="#2e8b57" stroke-width="2"/>
    <text x="80" y="180" font-family="Arial" font-size="12" fill="#333333" text-anchor="middle">[2]</text>

    <rect y="200" width="160" height="30" rx="5" fill="#e1ffe1" stroke="#2e8b57" stroke-width="2"/>
    <text x="80" y="220" font-family="Arial" font-size="12" fill="#333333" text-anchor="middle">[2]</text>

    <rect y="240" width="160" height="30" rx="5" fill="#e1ffe1" stroke="#2e8b57" stroke-width="2"/>
    <text x="80" y="260" font-family="Arial" font-size="12" fill="#333333" text-anchor="middle">[3]</text>

    <rect y="280" width="160" height="30" rx="5" fill="#e1ffe1" stroke="#2e8b57" stroke-width="2"/>
    <text x="80" y="300" font-family="Arial" font-size="12" fill="#333333" text-anchor="middle">[3]</text>

    <rect y="320" width="160" height="30" rx="5" fill="#e1ffe1" stroke="#2e8b57" stroke-width="2"/>
    <text x="80" y="340" font-family="Arial" font-size="12" fill="#333333" text-anchor="middle">[4]</text>

    <rect y="360" width="160" height="30" rx="5" fill="#e1ffe1" stroke="#2e8b57" stroke-width="2"/>
    <text x="80" y="380" font-family="Arial" font-size="12" fill="#333333" text-anchor="middle">[4]</text>
  </g>

  <!-- Edges -->
  <g stroke="#333333" stroke-width="2" fill="none" marker-end="url(#arrowhead)">
    <path d="M 230 75 L 370 75"/>
    <path d="M 230 115 L 370 115"/>
    <path d="M 230 155 L 370 155"/>
    <path d="M 230 195 L 370 195"/>
    <path d="M 230 235 L 370 235"/>
    <path d="M 230 275 L 370 275"/>
    <path d="M 230 315 L 370 315"/>
    <path d="M 230 355 L 370 355"/>
    <path d="M 230 395 L 370 395"/>
    <path d="M 230 435 L 370 435"/>
  </g>

</svg>
